# xmcd
#
# Track frame offsets:
#	150
#	15127
#	31145
#	46416
#	59856
#	72012
#	91458
#	104050
#	124122
#	136939
#	152320
#	172404
#	177742
#
# Disc length: 2626 seconds
# Revision: 0
# Processed by: cddbd v1.5.2PL0 Copyright (c) Steve Scherf et al.
# Submitted via: dBpowerAMP V12.0
#
DISCID=b30a400d
DTITLE=Dale Ann Bradley - Somewhere South Of Crazy
DYEAR=2011
DGENRE=Bluegrass
TTITLE0=Somewhere South Of Crazy
TTITLE1=Round and Round
TTITLE2=Summer Breeze
TTITLE3=Come Home Good Boy
TTITLE4=In Despair
TTITLE5=Restoring the Love
TTITLE6=New Shoes
TTITLE7=Leaving Kentucky
TTITLE8=Next to Nothing
TTITLE9=Will You Visit Me on Sundays
TTITLE10=I Pressed Through the Crowd
TTITLE11=Old Southern Porches (Intro-Bonus Track)
TTITLE12=Old Southern Porches (Bonus Track)
EXTD=
EXTT0=
EXTT1=
EXTT2=
EXTT3=
EXTT4=
EXTT5=
EXTT6=
EXTT7=
EXTT8=
EXTT9=
EXTT10=
EXTT11=
EXTT12=
PLAYORDER=
